<?xml version="1.0" encoding="UTF-8" standalone="no"?>
<!DOCTYPE svg PUBLIC "-//W3C//DTD SVG 1.1//EN"
 "http://www.w3.org/Graphics/SVG/1.1/DTD/svg11.dtd">
<!-- Generated by graphviz version 2.50.0 (0)
 -->
<!-- Title: Tree Pages: 1 -->
<svg width="682pt" height="412pt"
 viewBox="0.00 0.00 681.93 412.08" xmlns="http://www.w3.org/2000/svg" xmlns:xlink="http://www.w3.org/1999/xlink">
<g id="graph0" class="graph" transform="scale(1 1) rotate(0) translate(4 408.08)">
<title>Tree</title>
<polygon fill="white" stroke="transparent" points="-4,4 -4,-408.08 677.93,-408.08 677.93,4 -4,4"/>
<!-- 0 -->
<g id="node1" class="node">
<title>0</title>
<path fill="#f6d5bc" stroke="black" d="M401.89,-389.7C401.89,-389.7 271.04,-389.7 271.04,-389.7 265.04,-389.7 259.04,-383.7 259.04,-377.7 259.04,-377.7 259.04,-326.3 259.04,-326.3 259.04,-320.3 265.04,-314.3 271.04,-314.3 271.04,-314.3 401.89,-314.3 401.89,-314.3 407.89,-314.3 413.89,-320.3 413.89,-326.3 413.89,-326.3 413.89,-377.7 413.89,-377.7 413.89,-383.7 407.89,-389.7 401.89,-389.7"/>
<text text-anchor="start" x="290.16" y="-373" font-family="Helvetica,sans-Serif" font-size="14.00">price ≤ 4657.5</text>
<text text-anchor="start" x="267" y="-356.2" font-family="Helvetica,sans-Serif" font-size="14.00">squared_error = 73.39</text>
<text text-anchor="start" x="279.06" y="-339.4" font-family="Helvetica,sans-Serif" font-size="14.00">samples = 260068</text>
<text text-anchor="start" x="298.13" y="-322.6" font-family="Helvetica,sans-Serif" font-size="14.00">value = 8.82</text>
</g>
<!-- 1 -->
<g id="node2" class="node">
<title>1</title>
<path fill="#fdf5ef" stroke="black" d="M315.89,-233.7C315.89,-233.7 185.04,-233.7 185.04,-233.7 179.04,-233.7 173.04,-227.7 173.04,-221.7 173.04,-221.7 173.04,-170.3 173.04,-170.3 173.04,-164.3 179.04,-158.3 185.04,-158.3 185.04,-158.3 315.89,-158.3 315.89,-158.3 321.89,-158.3 327.89,-164.3 327.89,-170.3 327.89,-170.3 327.89,-221.7 327.89,-221.7 327.89,-227.7 321.89,-233.7 315.89,-233.7"/>
<text text-anchor="start" x="204.16" y="-217" font-family="Helvetica,sans-Serif" font-size="14.00">price ≤ 2886.5</text>
<text text-anchor="start" x="181" y="-200.2" font-family="Helvetica,sans-Serif" font-size="14.00">squared_error = 66.68</text>
<text text-anchor="start" x="193.06" y="-183.4" font-family="Helvetica,sans-Serif" font-size="14.00">samples = 166695</text>
<text text-anchor="start" x="212.13" y="-166.6" font-family="Helvetica,sans-Serif" font-size="14.00">value = 7.89</text>
</g>
<!-- 0&#45;&gt;1 -->
<g id="edge1" class="edge">
<title>0&#45;&gt;1</title>
<path fill="none" stroke="black" d="M315.86,-314.11C303.89,-292.67 288.7,-265.46 275.97,-242.67"/>
<polygon fill="black" stroke="black" points="278.97,-240.88 271.04,-233.85 272.86,-244.29 278.97,-240.88"/>
<text text-anchor="middle" x="264.23" y="-253.71" font-family="Helvetica,sans-Serif" font-size="14.00">True</text>
</g>
<!-- 2 -->
<g id="node5" class="node">
<title>2</title>
<path fill="#ea9a61" stroke="black" d="M488.89,-233.7C488.89,-233.7 358.04,-233.7 358.04,-233.7 352.04,-233.7 346.04,-227.7 346.04,-221.7 346.04,-221.7 346.04,-170.3 346.04,-170.3 346.04,-164.3 352.04,-158.3 358.04,-158.3 358.04,-158.3 488.89,-158.3 488.89,-158.3 494.89,-158.3 500.89,-164.3 500.89,-170.3 500.89,-170.3 500.89,-221.7 500.89,-221.7 500.89,-227.7 494.89,-233.7 488.89,-233.7"/>
<text text-anchor="start" x="377.16" y="-217" font-family="Helvetica,sans-Serif" font-size="14.00">price ≤ 8949.5</text>
<text text-anchor="start" x="354" y="-200.2" font-family="Helvetica,sans-Serif" font-size="14.00">squared_error = 81.03</text>
<text text-anchor="start" x="369.96" y="-183.4" font-family="Helvetica,sans-Serif" font-size="14.00">samples = 93373</text>
<text text-anchor="start" x="381.23" y="-166.6" font-family="Helvetica,sans-Serif" font-size="14.00">value = 10.49</text>
</g>
<!-- 0&#45;&gt;2 -->
<g id="edge4" class="edge">
<title>0&#45;&gt;2</title>
<path fill="none" stroke="black" d="M357.3,-314.11C369.42,-292.67 384.79,-265.46 397.66,-242.67"/>
<polygon fill="black" stroke="black" points="400.77,-244.28 402.64,-233.85 394.68,-240.84 400.77,-244.28"/>
<text text-anchor="middle" x="409.34" y="-253.74" font-family="Helvetica,sans-Serif" font-size="14.00">False</text>
</g>
<!-- 5 -->
<g id="node3" class="node">
<title>5</title>
<path fill="#ffffff" stroke="black" d="M142.89,-70.4C142.89,-70.4 12.04,-70.4 12.04,-70.4 6.04,-70.4 0.04,-64.4 0.04,-58.4 0.04,-58.4 0.04,-23.6 0.04,-23.6 0.04,-17.6 6.04,-11.6 12.04,-11.6 12.04,-11.6 142.89,-11.6 142.89,-11.6 148.89,-11.6 154.89,-17.6 154.89,-23.6 154.89,-23.6 154.89,-58.4 154.89,-58.4 154.89,-64.4 148.89,-70.4 142.89,-70.4"/>
<text text-anchor="start" x="8" y="-53.6" font-family="Helvetica,sans-Serif" font-size="14.00">squared_error = 64.64</text>
<text text-anchor="start" x="20.06" y="-36.8" font-family="Helvetica,sans-Serif" font-size="14.00">samples = 127825</text>
<text text-anchor="start" x="43.02" y="-20" font-family="Helvetica,sans-Serif" font-size="14.00">value = 7.6</text>
</g>
<!-- 1&#45;&gt;5 -->
<g id="edge2" class="edge">
<title>1&#45;&gt;5</title>
<path fill="none" stroke="black" d="M209.03,-158.35C181.07,-133.63 144.39,-101.19 116.87,-76.85"/>
<polygon fill="black" stroke="black" points="119.17,-74.21 109.36,-70.21 114.53,-79.46 119.17,-74.21"/>
</g>
<!-- 6 -->
<g id="node4" class="node">
<title>6</title>
<path fill="#f6d4bc" stroke="black" d="M315.89,-70.4C315.89,-70.4 185.04,-70.4 185.04,-70.4 179.04,-70.4 173.04,-64.4 173.04,-58.4 173.04,-58.4 173.04,-23.6 173.04,-23.6 173.04,-17.6 179.04,-11.6 185.04,-11.6 185.04,-11.6 315.89,-11.6 315.89,-11.6 321.89,-11.6 327.89,-17.6 327.89,-23.6 327.89,-23.6 327.89,-58.4 327.89,-58.4 327.89,-64.4 321.89,-70.4 315.89,-70.4"/>
<text text-anchor="start" x="181" y="-53.6" font-family="Helvetica,sans-Serif" font-size="14.00">squared_error = 72.23</text>
<text text-anchor="start" x="196.96" y="-36.8" font-family="Helvetica,sans-Serif" font-size="14.00">samples = 38870</text>
<text text-anchor="start" x="212.13" y="-20" font-family="Helvetica,sans-Serif" font-size="14.00">value = 8.83</text>
</g>
<!-- 1&#45;&gt;6 -->
<g id="edge3" class="edge">
<title>1&#45;&gt;6</title>
<path fill="none" stroke="black" d="M250.46,-158.35C250.46,-134.79 250.46,-104.22 250.46,-80.33"/>
<polygon fill="black" stroke="black" points="253.96,-80.21 250.46,-70.21 246.96,-80.21 253.96,-80.21"/>
</g>
<!-- 3 -->
<g id="node6" class="node">
<title>3</title>
<path fill="#f0b58b" stroke="black" d="M488.89,-70.4C488.89,-70.4 358.04,-70.4 358.04,-70.4 352.04,-70.4 346.04,-64.4 346.04,-58.4 346.04,-58.4 346.04,-23.6 346.04,-23.6 346.04,-17.6 352.04,-11.6 358.04,-11.6 358.04,-11.6 488.89,-11.6 488.89,-11.6 494.89,-11.6 500.89,-17.6 500.89,-23.6 500.89,-23.6 500.89,-58.4 500.89,-58.4 500.89,-64.4 494.89,-70.4 488.89,-70.4"/>
<text text-anchor="start" x="354" y="-53.6" font-family="Helvetica,sans-Serif" font-size="14.00">squared_error = 75.97</text>
<text text-anchor="start" x="369.96" y="-36.8" font-family="Helvetica,sans-Serif" font-size="14.00">samples = 45255</text>
<text text-anchor="start" x="385.13" y="-20" font-family="Helvetica,sans-Serif" font-size="14.00">value = 9.71</text>
</g>
<!-- 2&#45;&gt;3 -->
<g id="edge5" class="edge">
<title>2&#45;&gt;3</title>
<path fill="none" stroke="black" d="M423.46,-158.35C423.46,-134.79 423.46,-104.22 423.46,-80.33"/>
<polygon fill="black" stroke="black" points="426.96,-80.21 423.46,-70.21 419.96,-80.21 426.96,-80.21"/>
</g>
<!-- 4 -->
<g id="node7" class="node">
<title>4</title>
<path fill="#e58139" stroke="black" d="M661.89,-70.4C661.89,-70.4 531.04,-70.4 531.04,-70.4 525.04,-70.4 519.04,-64.4 519.04,-58.4 519.04,-58.4 519.04,-23.6 519.04,-23.6 519.04,-17.6 525.04,-11.6 531.04,-11.6 531.04,-11.6 661.89,-11.6 661.89,-11.6 667.89,-11.6 673.89,-17.6 673.89,-23.6 673.89,-23.6 673.89,-58.4 673.89,-58.4 673.89,-64.4 667.89,-70.4 661.89,-70.4"/>
<text text-anchor="start" x="527" y="-53.6" font-family="Helvetica,sans-Serif" font-size="14.00">squared_error = 84.69</text>
<text text-anchor="start" x="542.96" y="-36.8" font-family="Helvetica,sans-Serif" font-size="14.00">samples = 48118</text>
<text text-anchor="start" x="554.23" y="-20" font-family="Helvetica,sans-Serif" font-size="14.00">value = 11.22</text>
</g>
<!-- 2&#45;&gt;4 -->
<g id="edge6" class="edge">
<title>2&#45;&gt;4</title>
<path fill="none" stroke="black" d="M464.9,-158.35C492.86,-133.63 529.54,-101.19 557.06,-76.85"/>
<polygon fill="black" stroke="black" points="559.39,-79.46 564.56,-70.21 554.75,-74.21 559.39,-79.46"/>
</g>
</g>
</svg>
